<svg width="50" height="50" viewBox="0 0 50 50" fill="none" xmlns="http://www.w3.org/2000/svg">
<path d="M15.2344 25C15.2344 26.0787 16.1088 26.9531 17.1875 26.9531H23.0469V32.8125C23.0469 33.8912 23.9213 34.7656 25 34.7656C26.0787 34.7656 26.9531 33.8912 26.9531 32.8125V26.9531H32.8125C33.8912 26.9531 34.7656 26.0787 34.7656 25C34.7656 23.9213 33.8912 23.0469 32.8125 23.0469H26.9531V17.1875C26.9531 16.1088 26.0787 15.2344 25 15.2344C23.9213 15.2344 23.0469 16.1088 23.0469 17.1875V23.0469H17.1875C16.1088 23.0469 15.2344 23.9213 15.2344 25Z" fill="#FF0000"/>
<path d="M15.6646 6.03514L18.1908 4.98866C19.1873 4.57577 19.6607 3.43329 19.2478 2.4367C18.8349 1.44012 17.6925 0.966587 16.6958 1.37977L14.1695 2.42625C13.1731 2.83915 12.6997 3.98163 13.1126 4.97821C13.5241 5.97147 14.6648 6.44901 15.6646 6.03514Z" fill="#FF0000"/>
<path d="M25 0C23.9213 0 23.0469 0.874414 23.0469 1.95312C23.0469 3.03184 23.9213 3.90625 25 3.90625C36.658 3.90625 46.0938 13.3406 46.0938 25C46.0938 36.658 36.6594 46.0938 25 46.0938C13.342 46.0938 3.90625 36.6594 3.90625 25C3.90625 23.9213 3.03184 23.0469 1.95312 23.0469C0.874414 23.0469 0 23.9213 0 25C0 38.8167 11.1813 50 25 50C38.8167 50 50 38.8187 50 25C50 11.1833 38.8187 0 25 0Z" fill="#FF0000"/>
<path d="M9.11799 11.0513L11.0515 9.11777C11.8143 8.35498 11.8143 7.11826 11.0515 6.35557C10.2887 5.59287 9.05198 5.59277 8.28928 6.35557L6.35579 8.28906C5.59299 9.05185 5.59299 10.2886 6.35579 11.0513C7.11838 11.8139 8.3552 11.8141 9.11799 11.0513Z" fill="#FF0000"/>
<path d="M2.43663 19.2479C3.43536 19.6616 4.57667 19.1853 4.98858 18.191L6.03507 15.6646C6.44796 14.6681 5.97462 13.5256 4.97813 13.1127C3.98136 12.6999 2.83907 13.1731 2.42618 14.1696L1.3797 16.6959C0.966805 17.6926 1.44014 18.8351 2.43663 19.2479Z" fill="#FF0000"/>
</svg>
