<svg width="24" height="24" viewBox="0 0 24 24" fill="none" xmlns="http://www.w3.org/2000/svg">
<g clip-path="url(#clip0)">
<path d="M24 17.6902C24 15.1061 22.1316 12.9503 19.6748 12.5024L18.9483 6.20584H20.9484V1.79391C18.4488 1.53666 16.4211 2.1556 14.9535 3.70159L15.021 4.79963H13.5234V6.20588H15.1076L15.5369 13.1832C15.561 13.5286 15.27 13.9408 14.825 13.9403H9.76073C10.028 13.0302 10.9879 12.277 11.9977 12.2996H12.7008V8.54963C12.7008 7.32193 11.702 6.32307 10.4743 6.32307H5.90625C4.67855 6.32307 3.67969 7.32193 3.67969 8.54963C3.67969 9.25159 4.00655 9.8783 4.5157 10.2867C3.75797 10.6771 3.05691 11.1867 2.43666 11.8067C0.865359 13.3786 0 15.468 0 17.6902V18.3933H1.6613C1.58522 20.4856 3.30234 22.2688 5.40802 22.2625C7.49822 22.2666 9.2302 20.5058 9.15478 18.3933H14.8452C14.7691 20.4856 16.4863 22.2688 18.5919 22.2625C20.6821 22.2666 22.4141 20.5058 22.3387 18.3933H24V17.6902ZM16.3975 4.27229C17.2166 3.58187 18.3075 3.19351 19.5422 3.14916V4.79959H16.4299L16.3975 4.27229ZM5.90625 9.3699C5.45395 9.3699 5.08594 9.00188 5.08594 8.54959C5.08594 8.09729 5.45395 7.72927 5.90625 7.72927H10.4742C10.9265 7.72927 11.2945 8.09729 11.2945 8.54959V9.3699H8.32031H5.90625ZM3.43097 12.8011C4.73723 11.4953 6.47363 10.7762 8.32031 10.7762H11.2945V10.9588C10.5608 11.0973 9.8857 11.4522 9.34612 11.9919C8.42859 12.8601 8.16998 14.1403 8.24766 15.3465H14.825C15.974 15.3729 17.0395 14.2982 16.9405 13.0967L16.5165 6.20588H17.5327L18.4088 13.7993C18.6357 15.4096 17.2411 17.0265 15.5677 16.9871H1.44131C1.59998 15.4059 2.29247 13.94 3.43097 12.8011ZM5.40802 20.8563C4.09912 20.8587 2.99203 19.734 3.06858 18.3934H4.70494V19.2169L6.11119 19.2169V18.3934H7.74755C7.82405 19.7339 6.71695 20.8587 5.40802 20.8563ZM18.592 20.8563C17.283 20.8587 16.176 19.734 16.2525 18.3934H17.8889V19.2169L19.2951 19.2169V18.3934H20.9315C21.008 19.7339 19.9009 20.8587 18.592 20.8563ZM18.733 16.9871C18.7395 16.9799 18.7462 16.9729 18.7526 16.9657C19.4838 16.1452 19.8676 15.0749 19.8315 13.9848C21.208 14.396 22.2654 15.5539 22.5297 16.9871H18.733Z" fill="#7D8797"/>
</g>
<defs>
<clipPath id="clip0">
<rect width="24" height="24" fill="white"/>
</clipPath>
</defs>
</svg>
