<svg width="24" height="24" viewBox="0 0 24 24" fill="none" xmlns="http://www.w3.org/2000/svg">
<g clip-path="url(#clip0)">
<path d="M19.5312 9.41408H19.2126L17.9896 6.96818C17.4086 5.80582 15.9355 4.89532 14.6359 4.89532H7.8578C6.55823 4.89532 5.08514 5.80582 4.50417 6.96809L3.28106 9.41408H2.58591C1.16006 9.41408 0 10.5741 0 12V14.2594C0 15.6852 1.16006 16.8453 2.58591 16.8453H3.47419C3.79073 18.1404 4.96045 19.1046 6.3517 19.1046C7.74291 19.1046 8.91253 18.1404 9.22908 16.8453H14.7711C15.0877 18.1404 16.2573 19.1046 17.6486 19.1046C19.0398 19.1046 20.2094 18.1404 20.526 16.8453H21.414C22.84 16.8453 24 15.6852 24 14.2594V13.8828C24 11.4187 21.9953 9.41408 19.5312 9.41408ZM16.7318 7.59701L17.6404 9.41408H11.9501V6.30158H14.6359C15.4074 6.30158 16.3868 6.90687 16.7318 7.59701ZM5.76202 7.59692C6.10692 6.90687 7.08628 6.30158 7.8578 6.30158H10.5439V9.41408H4.85334L5.76202 7.59692ZM6.3517 17.6984C5.49356 17.6984 4.79545 17.0003 4.79545 16.1422C4.79545 15.284 5.49361 14.5859 6.3517 14.5859C7.20905 14.5859 7.90659 15.2829 7.90777 16.1401C7.90777 16.1408 7.90767 16.1415 7.90767 16.1422C7.90767 16.1429 7.90777 16.1436 7.90777 16.1443C7.90659 17.0015 7.20905 17.6984 6.3517 17.6984ZM17.6485 17.6984C16.7904 17.6984 16.0923 17.0003 16.0923 16.1422C16.0923 15.284 16.7905 14.5859 17.6485 14.5859C18.5066 14.5859 19.2046 15.284 19.2046 16.1422C19.2046 17.0003 18.5066 17.6984 17.6485 17.6984ZM22.5938 14.2594C22.5938 14.9098 22.0645 15.4391 21.414 15.4391H20.5259C20.2094 14.1439 19.0397 13.1796 17.6485 13.1796C16.2573 13.1796 15.0876 14.1439 14.7711 15.4391H9.22903C8.91253 14.1439 7.74286 13.1796 6.35166 13.1796C4.96041 13.1796 3.79069 14.1439 3.47414 15.4391H2.58586C1.93547 15.4391 1.40625 14.9099 1.40625 14.2594V12C1.40625 11.3495 1.93547 10.8203 2.58591 10.8203H18.774C18.7755 10.8203 18.777 10.8205 18.7786 10.8205C18.7796 10.8205 18.7805 10.8203 18.7815 10.8203H19.5312C20.6931 10.8203 21.7059 11.4707 22.2248 12.4265H22.1672C21.7789 12.4265 21.4641 12.7414 21.4641 13.1297C21.4641 13.518 21.7789 13.8328 22.1672 13.8328H22.5924C22.5927 13.8495 22.5937 13.866 22.5937 13.8828V14.2594H22.5938Z" fill="#7D8797"/>
<path d="M12.3764 12.4266H11.6233C11.235 12.4266 10.9202 12.7414 10.9202 13.1297C10.9202 13.518 11.235 13.8328 11.6233 13.8328H12.3764C12.7647 13.8328 13.0795 13.518 13.0795 13.1297C13.0795 12.7413 12.7647 12.4266 12.3764 12.4266Z" fill="#7D8797"/>
</g>
<defs>
<clipPath id="clip0">
<rect width="24" height="24" fill="white"/>
</clipPath>
</defs>
</svg>
