<svg width="30" height="30" viewBox="0 0 30 30" fill="none" xmlns="http://www.w3.org/2000/svg">
<circle cx="15" cy="15" r="13.5" fill="#3B72FF" stroke="#3B72FF" stroke-width="3"/>
<path d="M22.5149 8.0746L20.9703 6.52944C20.2645 5.8235 19.1163 5.82354 18.4105 6.52944C17.746 7.19416 7.59681 17.3468 6.91855 18.0253C6.84631 18.0976 6.7979 18.1936 6.78066 18.2876L6.00835 22.4595C5.97842 22.6212 6.02996 22.7874 6.14625 22.9037C6.26267 23.0201 6.4288 23.0716 6.5903 23.0416L10.7607 22.269C10.8571 22.251 10.9519 22.2022 11.0229 22.1311L22.5149 10.6352C23.2222 9.92762 23.2224 8.78227 22.5149 8.0746ZM7.12263 21.9269L7.58982 19.4033L9.64546 21.4596L7.12263 21.9269ZM10.6698 21.0714L7.97787 18.3786L17.806 8.5471L20.4979 11.24L10.6698 21.0714ZM21.8086 9.92878L21.2041 10.5336L18.5121 7.84069L19.1167 7.23592C19.433 6.9195 19.9477 6.91946 20.264 7.23592L21.8086 8.78107C22.1257 9.09826 22.1257 9.61156 21.8086 9.92878Z" fill="white"/>
</svg>
