<svg width="48" height="48" viewBox="0 0 48 48" fill="none" xmlns="http://www.w3.org/2000/svg">
<rect width="48" height="48" rx="4" fill="#FF2667"/>
<path fill-rule="evenodd" clip-rule="evenodd" d="M21 17H17V21H15V17C15 15.9 15.9 15 17 15H21V17ZM15 27H17V31H21V33H17C15.9 33 15 32.1 15 31V27ZM24 20C21.79 20 20 21.79 20 24C20 26.21 21.79 28 24 28C26.21 28 28 26.21 28 24C28 21.79 26.21 20 24 20ZM22 24C22 25.1 22.9 26 24 26C25.1 26 26 25.1 26 24C26 22.9 25.1 22 24 22C22.9 22 22 22.9 22 24ZM31 15H27V17H31V21H33V17C33 15.9 32.1 15 31 15ZM27 31H31V27H33V31C33 32.1 32.1 33 31 33H27V31Z" fill="white"/>
</svg>
