<svg width="24" height="24" viewBox="0 0 24 24" fill="none" xmlns="http://www.w3.org/2000/svg">
<g clip-path="url(#clip0)">
<path d="M0 0.00128174V10.0458H10.0445V0.00128174H0ZM8.57531 8.57664H1.46925V1.47048H8.57531V8.57664Z" fill="#7D8797"/>
<path d="M13.8352 0.00128174V10.0458H23.8797V0.00128174H13.8352ZM22.4105 8.57664H15.3044V1.47048H22.4105V8.57664H22.4105Z" fill="#7D8797"/>
<path d="M0 13.9542V23.9987H10.0445V13.9542H0ZM8.57531 22.5295H1.46925V15.4235H8.57531V22.5295Z" fill="#7D8797"/>
<path d="M19.5896 11.2626H18.1204V14.6886H19.5896V11.2626Z" fill="#7D8797"/>
<path d="M12.7334 0.00128174H11.2642V9.99203H12.7334V0.00128174Z" fill="#7D8797"/>
<path d="M12.7334 13.9812H11.2642V23.972H12.7334V13.9812Z" fill="#7D8797"/>
<path d="M10.1377 11.2655H0V12.7348H10.1377V11.2655Z" fill="#7D8797"/>
<path d="M18.384 16.163H16.9099V17.6371H18.384V16.163Z" fill="#7D8797"/>
<path d="M19.865 16.163H18.3909V17.6371H19.865V16.163Z" fill="#7D8797"/>
<path d="M24 14.6888H22.5259V16.163H24V14.6888Z" fill="#7D8797"/>
<path d="M22.5258 11.2629H21.0515V12.7371H22.5258H24.0001V11.2629H22.5258Z" fill="#7D8797"/>
<path d="M16.8467 11.2626H15.3726V12.7367H16.8467V11.2626Z" fill="#7D8797"/>
<path d="M19.592 7.10077H18.1179V8.57489H19.592V7.10077Z" fill="#7D8797"/>
<path d="M19.592 3.15497H18.1179V4.62909H19.592V3.15497Z" fill="#7D8797"/>
<path d="M12.7356 11.2626H11.2615V12.7367H12.7356V11.2626Z" fill="#7D8797"/>
<path d="M22.5255 21.0585V22.5295H19.8682V21.0585H21.3392V19.5842V18.1099H19.8648V19.5842H18.3939H18.3906H16.9196V21.0585H18.3906H18.3939V22.5295H15.4219V16.1632H15.4352H16.9095V14.6888H15.4352H15.3093H13.9609V14.6889H13.9526V23.9987H23.9972V22.5328H23.9998V21.0585H22.5255Z" fill="#7D8797"/>
<path d="M24 18.1097H22.5259V19.5839H24V18.1097Z" fill="#7D8797"/>
</g>
<defs>
<clipPath id="clip0">
<rect width="24" height="24" fill="white"/>
</clipPath>
</defs>
</svg>
