<svg width="50" height="50" viewBox="0 0 50 50" fill="none" xmlns="http://www.w3.org/2000/svg">
<g clip-path="url(#clip0)">
<path d="M47.9165 18.1167C46.7644 18.1167 45.8332 17.1833 45.8332 16.0333V6.15833C45.8332 5.06042 44.9394 4.16667 43.8436 4.16667H33.9686C32.8165 4.16667 31.8853 3.23333 31.8853 2.08333C31.8853 0.933333 32.8165 0 33.9686 0H43.8436C47.2394 0 49.9998 2.7625 49.9998 6.15833V16.0333C49.9998 17.1833 49.0686 18.1167 47.9165 18.1167Z" fill="black"/>
<path d="M2.08333 18.1167C0.93125 18.1167 0 17.1833 0 16.0333V6.15833C0 2.7625 2.76042 0 6.15625 0H16.0313C17.1833 0 18.1146 0.933333 18.1146 2.08333C18.1146 3.23333 17.1833 4.16667 16.0313 4.16667H6.15625C5.06042 4.16667 4.16667 5.06042 4.16667 6.15833V16.0333C4.16667 17.1833 3.23542 18.1167 2.08333 18.1167Z" fill="black"/>
<path d="M43.8436 50H33.9686C32.8165 50 31.8853 49.0666 31.8853 47.9166C31.8853 46.7666 32.8165 45.8333 33.9686 45.8333H43.8436C44.9394 45.8333 45.8332 44.9396 45.8332 43.8416V33.9666C45.8332 32.8166 46.7644 31.8833 47.9165 31.8833C49.0686 31.8833 49.9998 32.8166 49.9998 33.9666V43.8416C49.9998 47.2375 47.2394 50 43.8436 50Z" fill="black"/>
<path d="M16.0313 50H6.15625C2.76042 50 0 47.2375 0 43.8416V33.9666C0 32.8166 0.93125 31.8833 2.08333 31.8833C3.23542 31.8833 4.16667 32.8166 4.16667 33.9666V43.8416C4.16667 44.9396 5.06042 45.8333 6.15625 45.8333H16.0313C17.1833 45.8333 18.1146 46.7666 18.1146 47.9166C18.1146 49.0666 17.1833 50 16.0313 50Z" fill="black"/>
<path d="M19.7459 23.2479H9.37508C8.223 23.2479 7.29175 22.3146 7.29175 21.1646V9.37502C7.29175 8.22502 8.223 7.29169 9.37508 7.29169H19.7459C20.898 7.29169 21.8292 8.22502 21.8292 9.37502V21.1646C21.8292 22.3146 20.8959 23.2479 19.7459 23.2479ZM11.4584 19.0813H17.6626V11.4584H11.4584V19.0813Z" fill="#FF0000"/>
<path d="M40.6249 42.7083H30.7291C29.577 42.7083 28.6458 41.775 28.6458 40.625V33.9958C28.6458 32.8458 29.577 31.9125 30.7291 31.9125C31.8812 31.9125 32.8124 32.8458 32.8124 33.9958V38.5417H38.5416V32.2917H36.0791C34.927 32.2917 33.9958 31.3583 33.9958 30.2083C33.9958 29.0583 34.927 28.125 36.0791 28.125H40.6249C41.777 28.125 42.7083 29.0583 42.7083 30.2083V40.625C42.7083 41.775 41.777 42.7083 40.6249 42.7083Z" fill="#FF0000"/>
<path d="M40.6248 19.9813H32.1019C30.9498 19.9813 30.0186 19.0479 30.0186 17.8979V9.37502C30.0186 8.22502 30.9498 7.29169 32.1019 7.29169H40.6248C41.7769 7.29169 42.7081 8.22502 42.7081 9.37502V17.8979C42.7081 19.0479 41.7769 19.9813 40.6248 19.9813ZM34.1852 15.8146H38.5415V11.4584H34.1852V15.8146Z" fill="black"/>
<path d="M25.9959 29.45H9.37508C8.223 29.45 7.29175 28.5167 7.29175 27.3667C7.29175 26.2167 8.223 25.2833 9.37508 25.2833H23.9126V11.2688C23.9126 10.1188 24.8438 9.18542 25.9959 9.18542C27.148 9.18542 28.0792 10.1188 28.0792 11.2688V27.3667C28.0792 28.5167 27.1459 29.45 25.9959 29.45Z" fill="black"/>
<path d="M31.7708 28.9291C30.6187 28.9291 29.6875 27.9958 29.6875 26.8458V24.0062C29.6875 22.8562 30.6187 21.9229 31.7708 21.9229H41.1458C42.2979 21.9229 43.2292 22.8562 43.2292 24.0062C43.2292 25.1562 42.2979 26.0896 41.1458 26.0896H33.8542V26.8458C33.8542 27.9958 32.9229 28.9291 31.7708 28.9291Z" fill="black"/>
<path d="M25.0457 40.002C23.8937 40.002 22.9624 39.0687 22.9624 37.9187V33.1854C22.9624 32.0354 23.8937 31.1021 25.0457 31.1021C26.1978 31.1021 27.1291 32.0354 27.1291 33.1854V37.9187C27.1291 39.0687 26.1978 40.002 25.0457 40.002Z" fill="black"/>
<path d="M19.2709 42.7084H9.37508C8.223 42.7084 7.29175 41.775 7.29175 40.625V33.05C7.29175 31.9 8.223 30.9667 9.37508 30.9667H19.2709C20.423 30.9667 21.3542 31.9 21.3542 33.05V40.625C21.3542 41.775 20.423 42.7084 19.2709 42.7084ZM11.4584 38.5417H17.1876V35.1333H11.4584V38.5417Z" fill="black"/>
</g>
<defs>
<clipPath id="clip0">
<rect width="50" height="50" fill="white"/>
</clipPath>
</defs>
</svg>
