<svg width="50" height="50" viewBox="0 0 50 50" fill="none" xmlns="http://www.w3.org/2000/svg">
<g clip-path="url(#clip0)">
<g clip-path="url(#clip1)">
<path d="M18.4723 24.319C17.4281 24.319 16.5786 25.1685 16.5786 26.2127C16.5786 27.2568 17.4282 28.1063 18.4723 28.1063C19.5164 28.1063 20.3659 27.2568 20.3659 26.2127C20.3659 25.1685 19.5165 24.319 18.4723 24.319ZM18.4723 26.6497C18.2313 26.6497 18.0352 26.4537 18.0352 26.2127C18.0352 25.9717 18.2313 25.7757 18.4723 25.7757C18.7133 25.7757 18.9093 25.9717 18.9093 26.2127C18.9093 26.4537 18.7133 26.6497 18.4723 26.6497Z" fill="black"/>
<path d="M24.3182 21.9052C24.1828 21.7697 23.9949 21.6917 23.8033 21.6917C23.6117 21.6917 23.4238 21.7696 23.2884 21.9052C23.1522 22.0406 23.075 22.2285 23.075 22.4201C23.075 22.6117 23.1522 22.7996 23.2884 22.935C23.4238 23.0706 23.6117 23.1484 23.8033 23.1484C23.9949 23.1484 24.1828 23.0706 24.3182 22.935C24.4537 22.7996 24.5317 22.6117 24.5317 22.4201C24.5317 22.2285 24.4537 22.0406 24.3182 21.9052Z" fill="black"/>
<mask id="path-3-inside-1" fill="white">
<path d="M33.6494 10.4873H32.8642L22.5904 0.213538C22.306 -0.0708839 21.8447 -0.0708839 21.5604 0.213538L18.9284 2.84559L8.40197 0.0250402C8.01339 -0.0791871 7.61396 0.151482 7.50988 0.540059L4.84469 10.4873H3.0595C1.37278 10.4873 0.000488281 11.8595 0.000488281 13.5463C0.000488281 13.5868 0.00201782 13.6269 0.00354736 13.6669C0.00187215 13.687 0.000488281 13.7071 0.000488281 13.7275V33.65C0.000488281 35.658 1.63418 37.2917 3.64218 37.2917H29.7164C29.7277 37.2917 29.7388 37.2909 29.7501 37.2908H33.6494C35.6574 37.2908 37.291 35.6572 37.291 33.6491V14.1289C37.2911 12.1209 35.6574 10.4873 33.6494 10.4873ZM32.9987 11.944H33.6494C34.8543 11.944 35.8344 12.9242 35.8344 14.1289V19.9662C35.8344 20.9181 35.06 21.6924 34.1082 21.6924H33.3581V18.7903C33.3581 16.8076 31.7653 15.1911 29.7922 15.1505L32.9987 11.944ZM19.6611 4.17294C19.6612 4.17286 19.6613 4.17272 19.6614 4.17265L22.0755 1.75852L31.5999 11.2829L27.7578 15.125H26.4254L28.1682 13.3821C28.4526 13.0977 28.4526 12.6365 28.1682 12.352C27.5786 11.7624 27.5786 10.8032 28.1682 10.2136C28.4526 9.92918 28.4526 9.46799 28.1682 9.1835L24.1747 5.19023C23.8903 4.90581 23.4291 4.90581 23.1446 5.19023C22.555 5.7799 21.5957 5.7799 21.0062 5.19023C20.7218 4.90581 20.2605 4.90581 19.9762 5.19023L10.0414 15.125H8.70897L19.6611 4.17294ZM17.5177 12.3886C15.855 12.3886 14.4619 13.5626 14.1222 15.125H12.1013L20.555 6.67133C21.4881 7.2275 22.6627 7.2275 23.5958 6.67133L26.687 9.76254C26.1309 10.6956 26.1309 11.8702 26.687 12.8033L24.3652 15.125H20.9132C20.5734 13.5626 19.1804 12.3886 17.5177 12.3886ZM19.3958 15.125H15.6398C15.9354 14.3765 16.6656 13.8453 17.5178 13.8453C18.3701 13.8453 19.1002 14.3765 19.3958 15.125ZM7.93917 13.8348L9.86799 6.63623C10.3969 6.64475 10.9229 6.50971 11.3941 6.23753C11.8654 5.96549 12.2445 5.57866 12.5024 5.11521L15.7804 5.99353L11.0235 10.7505L7.93917 13.8348ZM8.72849 1.62057L17.739 4.03491L16.9698 4.8042L12.2625 3.54284C12.0758 3.4928 11.877 3.51902 11.7098 3.6156C11.5425 3.71218 11.4204 3.87125 11.3704 4.05786C11.2658 4.44796 11.0157 4.77405 10.6659 4.97602C10.3161 5.17799 9.90856 5.2316 9.51839 5.12708C9.12996 5.02293 8.73045 5.25352 8.62637 5.6421L6.07903 15.1486H5.10362L8.72849 1.62057ZM3.0595 11.944H4.45422L3.59549 15.1486H3.05942C2.17586 15.1486 1.45712 14.4298 1.45712 13.5463C1.45719 12.6628 2.17608 11.944 3.0595 11.944ZM35.8344 33.6491C35.8344 34.8539 34.8542 35.8341 33.6494 35.8341H32.6284C33.0864 35.2252 33.3581 34.4688 33.3581 33.65V30.7237H33.7951C34.5558 30.7237 35.2599 30.4788 35.8344 30.0646V33.6491ZM35.8344 27.2278C35.8344 28.3523 34.9195 29.2671 33.7951 29.2671H18.5001C16.8134 29.2671 15.4411 27.8949 15.4411 26.2081C15.4411 24.5213 16.8133 23.1491 18.5001 23.1491H20.7075C21.1098 23.1491 21.4358 22.8229 21.4358 22.4207C21.4358 22.0185 21.1098 21.6924 20.7075 21.6924H18.5001C16.0102 21.6924 13.9845 23.7181 13.9845 26.208C13.9845 28.698 16.0102 30.7237 18.5001 30.7237H31.9015V33.6499C31.9015 34.8434 30.9394 35.8167 29.7501 35.8349H4.95314V27.633C4.95314 27.2308 4.62706 26.9046 4.22479 26.9046C3.82252 26.9046 3.49644 27.2308 3.49644 27.633V35.8296C2.35933 35.7543 1.45712 34.8058 1.45712 33.65V16.1506C1.92349 16.4386 2.4723 16.6053 3.05942 16.6053H29.7163C30.9212 16.6053 31.9013 17.5855 31.9013 18.7903V21.6924H26.6351C26.2328 21.6924 25.9068 22.0186 25.9068 22.4208C25.9068 22.823 26.2328 23.1492 26.6351 23.1492H34.1082C34.7442 23.1492 35.3368 22.9609 35.8344 22.6382V27.2278Z"/>
</mask>
<path d="M33.6494 10.4873H32.8642L22.5904 0.213538C22.306 -0.0708839 21.8447 -0.0708839 21.5604 0.213538L18.9284 2.84559L8.40197 0.0250402C8.01339 -0.0791871 7.61396 0.151482 7.50988 0.540059L4.84469 10.4873H3.0595C1.37278 10.4873 0.000488281 11.8595 0.000488281 13.5463C0.000488281 13.5868 0.00201782 13.6269 0.00354736 13.6669C0.00187215 13.687 0.000488281 13.7071 0.000488281 13.7275V33.65C0.000488281 35.658 1.63418 37.2917 3.64218 37.2917H29.7164C29.7277 37.2917 29.7388 37.2909 29.7501 37.2908H33.6494C35.6574 37.2908 37.291 35.6572 37.291 33.6491V14.1289C37.2911 12.1209 35.6574 10.4873 33.6494 10.4873ZM32.9987 11.944H33.6494C34.8543 11.944 35.8344 12.9242 35.8344 14.1289V19.9662C35.8344 20.9181 35.06 21.6924 34.1082 21.6924H33.3581V18.7903C33.3581 16.8076 31.7653 15.1911 29.7922 15.1505L32.9987 11.944ZM19.6611 4.17294C19.6612 4.17286 19.6613 4.17272 19.6614 4.17265L22.0755 1.75852L31.5999 11.2829L27.7578 15.125H26.4254L28.1682 13.3821C28.4526 13.0977 28.4526 12.6365 28.1682 12.352C27.5786 11.7624 27.5786 10.8032 28.1682 10.2136C28.4526 9.92918 28.4526 9.46799 28.1682 9.1835L24.1747 5.19023C23.8903 4.90581 23.4291 4.90581 23.1446 5.19023C22.555 5.7799 21.5957 5.7799 21.0062 5.19023C20.7218 4.90581 20.2605 4.90581 19.9762 5.19023L10.0414 15.125H8.70897L19.6611 4.17294ZM17.5177 12.3886C15.855 12.3886 14.4619 13.5626 14.1222 15.125H12.1013L20.555 6.67133C21.4881 7.2275 22.6627 7.2275 23.5958 6.67133L26.687 9.76254C26.1309 10.6956 26.1309 11.8702 26.687 12.8033L24.3652 15.125H20.9132C20.5734 13.5626 19.1804 12.3886 17.5177 12.3886ZM19.3958 15.125H15.6398C15.9354 14.3765 16.6656 13.8453 17.5178 13.8453C18.3701 13.8453 19.1002 14.3765 19.3958 15.125ZM7.93917 13.8348L9.86799 6.63623C10.3969 6.64475 10.9229 6.50971 11.3941 6.23753C11.8654 5.96549 12.2445 5.57866 12.5024 5.11521L15.7804 5.99353L11.0235 10.7505L7.93917 13.8348ZM8.72849 1.62057L17.739 4.03491L16.9698 4.8042L12.2625 3.54284C12.0758 3.4928 11.877 3.51902 11.7098 3.6156C11.5425 3.71218 11.4204 3.87125 11.3704 4.05786C11.2658 4.44796 11.0157 4.77405 10.6659 4.97602C10.3161 5.17799 9.90856 5.2316 9.51839 5.12708C9.12996 5.02293 8.73045 5.25352 8.62637 5.6421L6.07903 15.1486H5.10362L8.72849 1.62057ZM3.0595 11.944H4.45422L3.59549 15.1486H3.05942C2.17586 15.1486 1.45712 14.4298 1.45712 13.5463C1.45719 12.6628 2.17608 11.944 3.0595 11.944ZM35.8344 33.6491C35.8344 34.8539 34.8542 35.8341 33.6494 35.8341H32.6284C33.0864 35.2252 33.3581 34.4688 33.3581 33.65V30.7237H33.7951C34.5558 30.7237 35.2599 30.4788 35.8344 30.0646V33.6491ZM35.8344 27.2278C35.8344 28.3523 34.9195 29.2671 33.7951 29.2671H18.5001C16.8134 29.2671 15.4411 27.8949 15.4411 26.2081C15.4411 24.5213 16.8133 23.1491 18.5001 23.1491H20.7075C21.1098 23.1491 21.4358 22.8229 21.4358 22.4207C21.4358 22.0185 21.1098 21.6924 20.7075 21.6924H18.5001C16.0102 21.6924 13.9845 23.7181 13.9845 26.208C13.9845 28.698 16.0102 30.7237 18.5001 30.7237H31.9015V33.6499C31.9015 34.8434 30.9394 35.8167 29.7501 35.8349H4.95314V27.633C4.95314 27.2308 4.62706 26.9046 4.22479 26.9046C3.82252 26.9046 3.49644 27.2308 3.49644 27.633V35.8296C2.35933 35.7543 1.45712 34.8058 1.45712 33.65V16.1506C1.92349 16.4386 2.4723 16.6053 3.05942 16.6053H29.7163C30.9212 16.6053 31.9013 17.5855 31.9013 18.7903V21.6924H26.6351C26.2328 21.6924 25.9068 22.0186 25.9068 22.4208C25.9068 22.823 26.2328 23.1492 26.6351 23.1492H34.1082C34.7442 23.1492 35.3368 22.9609 35.8344 22.6382V27.2278Z" fill="black" stroke="black" stroke-width="20" mask="url(#path-3-inside-1)"/>
<path d="M4.73988 24.2773C4.60441 24.1419 4.41649 24.0639 4.22494 24.0639C4.03338 24.0639 3.84546 24.1418 3.70999 24.2773C3.57452 24.4128 3.49658 24.6007 3.49658 24.7923C3.49658 24.9838 3.57452 25.1717 3.70999 25.3072C3.84546 25.4427 4.03338 25.5206 4.22494 25.5206C4.41649 25.5206 4.60441 25.4427 4.73988 25.3072C4.87535 25.1717 4.95329 24.9838 4.95329 24.7923C4.95322 24.6007 4.87528 24.4128 4.73988 24.2773Z" fill="black"/>
</g>
<circle cx="37.8125" cy="37.8125" r="12.1875" fill="black"/>
<g clip-path="url(#clip2)">
<ellipse cx="37.8125" cy="37.8125" rx="10.9375" ry="10.9375" fill="white"/>
<path d="M37.8552 26.875C31.8477 26.875 26.875 31.7623 26.875 37.7698C26.875 43.7773 31.8477 48.75 37.8552 48.75C43.8627 48.75 48.75 43.7773 48.75 37.7698C48.75 31.7623 43.8627 26.875 37.8552 26.875ZM43.6231 39.0515H39.137V43.623C39.137 44.3297 38.5615 44.9048 37.8552 44.9048C37.1486 44.9048 36.5735 44.3297 36.5735 43.623V39.0515H32.002C31.2953 39.0515 30.7202 38.4764 30.7202 37.7698C30.7202 37.0631 31.2953 36.488 32.002 36.488H36.5735V32.002C36.5735 31.2953 37.1486 30.7202 37.8552 30.7202C38.5615 30.7202 39.137 31.2953 39.137 32.002V36.488H43.6231C44.3293 36.488 44.9048 37.0631 44.9048 37.7698C44.9048 38.4764 44.3293 39.0515 43.6231 39.0515Z" fill="#FF0000"/>
</g>
</g>
<defs>
<clipPath id="clip0">
<rect width="50" height="50" fill="white"/>
</clipPath>
<clipPath id="clip1">
<rect width="37.2917" height="37.2917" fill="white"/>
</clipPath>
<clipPath id="clip2">
<rect width="21.875" height="21.875" fill="white" transform="translate(26.875 26.875)"/>
</clipPath>
</defs>
</svg>
