<svg width="24" height="24" viewBox="0 0 24 24" fill="none" xmlns="http://www.w3.org/2000/svg">
<path d="M19.0784 6.03662L20.0727 7.03107L19.0784 8.02533L18.084 7.03107L19.0784 6.03662Z" fill="#7D8797"/>
<path d="M4.92175 8.0257L3.92749 7.03125L4.92175 6.03699L5.9162 7.03125L4.92175 8.0257Z" fill="#7D8797"/>
<path d="M9.9375 5.625C9.9375 6.78809 10.8838 7.73438 12.0469 7.73438C12.4345 7.73438 12.75 8.04987 12.75 8.4375C12.75 8.82513 12.4345 9.14062 12.0469 9.14062C11.6592 9.14062 11.3438 8.82513 11.3438 8.4375H9.9375C9.9375 9.35413 10.5253 10.1356 11.3438 10.426V11.25H12.75V10.426C13.5685 10.1356 14.1562 9.35413 14.1562 8.4375C14.1562 7.27441 13.21 6.32812 12.0469 6.32812C11.6592 6.32812 11.3438 6.01263 11.3438 5.625C11.3438 5.23737 11.6592 4.92188 12.0469 4.92188C12.4345 4.92188 12.75 5.23737 12.75 5.625H14.1562C14.1562 4.70837 13.5685 3.92688 12.75 3.63647V2.8125H11.3438V3.63647C10.5253 3.92688 9.9375 4.70837 9.9375 5.625Z" fill="#7D8797"/>
<path d="M0 0V14.062H12.4325C11.7246 15.1093 11.3438 16.3403 11.3438 17.625C11.3438 21.1152 14.1762 24 17.6719 24C21.1624 24 24 21.1207 24 17.625C24 16.3403 23.6191 15.1099 22.9113 14.0625H24V0H0ZM14.445 2.94653C15.1655 4.02759 15.5625 5.47815 15.5625 7.03125C15.5625 8.58435 15.1655 10.0349 14.445 11.116C13.7827 12.1091 12.9311 12.6562 12.0469 12.6562C11.1627 12.6562 10.311 12.1091 9.64874 11.116C8.92822 10.0349 8.53125 8.58435 8.53125 7.03125C8.53125 5.47815 8.92822 4.02759 9.64874 2.94653C10.311 1.95337 11.1627 1.40625 12.0469 1.40625C12.9311 1.40625 13.7827 1.95337 14.445 2.94653ZM1.40625 1.4057H2.8125C2.8125 2.18115 2.1817 2.81195 1.40625 2.81195V1.4057ZM1.40625 11.25C2.1817 11.25 2.8125 11.8808 2.8125 12.6562H1.40625V11.25ZM1.40625 9.84375V4.21875C2.95715 4.21875 4.21875 2.9566 4.21875 1.4057H9.07526C8.86432 1.63367 8.66473 1.88763 8.4787 2.1665C7.60583 3.47607 7.125 5.20367 7.125 7.03125C7.125 8.85883 7.60583 10.5864 8.4787 11.896C8.66473 12.1749 8.86432 12.4285 9.07526 12.6562H4.21875C4.21875 11.1053 2.95715 9.84375 1.40625 9.84375ZM17.6719 22.5938C14.9579 22.5938 12.75 20.3648 12.75 17.625C12.75 14.8852 14.9579 12.6562 17.6719 12.6562C20.3859 12.6562 22.5938 14.8852 22.5938 17.625C22.5938 20.3648 20.3859 22.5938 17.6719 22.5938ZM21.2205 12.3545C21.3591 11.7237 21.9219 11.25 22.5938 11.25V12.6562H21.6231C21.4922 12.5499 21.358 12.4493 21.2205 12.3545ZM22.5938 2.8125C21.8183 2.8125 21.1875 2.1817 21.1875 1.40625H22.5938V2.8125ZM22.5938 4.21875V9.84375C21.3858 9.84375 20.3536 10.6093 19.9561 11.6805C19.2363 11.3978 18.4649 11.25 17.6719 11.25C17.0455 11.25 16.4326 11.3423 15.8481 11.5204C16.5731 10.2645 16.9688 8.68909 16.9688 7.03125C16.9688 5.20367 16.4879 3.47607 15.6151 2.1665C15.429 1.88763 15.2294 1.63403 15.0185 1.40625H19.7812C19.7812 2.95715 21.0428 4.21875 22.5938 4.21875Z" fill="#7D8797"/>
<path d="M18.375 14.0625H16.9688V16.9219H14.1562V18.3281H16.9688V21.1406H18.375V18.3281H21.1875V16.9219H18.375V14.0625Z" fill="#7D8797"/>
</svg>
