<svg width="24" height="24" viewBox="0 0 24 24" fill="none" xmlns="http://www.w3.org/2000/svg">
<path d="M23.0821 9.61533L22.559 9.06149L20.7231 4.11277C20.4103 3.27687 19.6103 2.72302 18.7179 2.7179H5.60513C4.71282 2.7179 3.91282 3.27687 3.6 4.11277L1.78974 8.99995L1.0359 9.69738C0.379487 10.2564 0 11.0769 0 11.9384V19.1487C0.00512821 20.3282 0.964103 21.282 2.14359 21.282H3.49744C4.67692 21.282 5.6359 20.3282 5.64103 19.1487V18.1025H18.359V19.1487C18.3641 20.3282 19.3231 21.282 20.5026 21.282H21.8564C23.0359 21.282 23.9949 20.3282 24 19.1487V11.7487C23.9949 10.9435 23.6667 10.1743 23.0821 9.61533ZM4.5641 4.46149C4.72821 4.02559 5.14359 3.74354 5.60513 3.74354H18.7231C19.1846 3.74354 19.6 4.03072 19.7641 4.46149L21.3641 8.76918H20.1692C19.8872 6.8461 18.0974 5.5179 16.1744 5.80507C14.641 6.03072 13.4359 7.23584 13.2103 8.76918H2.9641L4.5641 4.46149ZM19.1231 8.76918H14.2462C14.5282 7.42046 15.8513 6.55892 17.2 6.84097C18.1641 7.0461 18.9179 7.79995 19.1231 8.76918ZM4.61538 19.1487C4.61026 19.764 4.11282 20.2564 3.49744 20.2564H2.14359C1.52821 20.2564 1.03077 19.764 1.02564 19.1487V17.8051C1.33333 18.0051 1.73846 18.1025 2.14359 18.1025H4.61538V19.1487ZM22.9744 19.1487C22.9692 19.764 22.4718 20.2564 21.8564 20.2564H20.5026C19.8872 20.2564 19.3897 19.7589 19.3846 19.1487V18.1025H21.8564C22.2615 18.1025 22.6667 18.0051 22.9744 17.8051V19.1487ZM21.8564 17.0769H2.14359C1.53333 17.082 1.03077 16.5948 1.02564 15.9794V11.9384C1.02564 11.3743 1.27692 10.8358 1.70769 10.4717C1.71282 10.4666 1.72308 10.4564 1.72821 10.4512L2.42564 9.79482H21.8462L22.3385 10.323C22.3436 10.3333 22.359 10.3384 22.3641 10.3487C22.7487 10.7128 22.9692 11.2205 22.9692 11.7487V15.9794H22.9744C22.9692 16.5897 22.4667 17.082 21.8564 17.0769Z" fill="#495A75" fill-opacity="0.58"/>
<path d="M6.76913 11.8462H2.92298C2.64093 11.8462 2.41016 12.077 2.41016 12.359V15.0257C2.41016 15.3077 2.64093 15.5385 2.92298 15.5385H6.76913C7.05118 15.5385 7.28195 15.3077 7.28195 15.0257V12.359C7.28195 12.077 7.05118 11.8462 6.76913 11.8462ZM6.25631 14.5129H3.4358V12.8718H6.25631V14.5129Z" fill="#495A75" fill-opacity="0.58"/>
<path d="M21.077 11.8462H17.2308C16.9488 11.8462 16.718 12.077 16.718 12.359V15.0257C16.718 15.3077 16.9488 15.5385 17.2308 15.5385H21.077C21.359 15.5385 21.5898 15.3077 21.5898 15.0257V12.359C21.5898 12.077 21.359 11.8462 21.077 11.8462ZM20.5642 14.5129H17.7437V12.8718H20.5642V14.5129Z" fill="#495A75" fill-opacity="0.58"/>
<path d="M14.4769 14H9.52308C9.24102 14 9.01025 14.2308 9.01025 14.5128C9.01025 14.7949 9.24102 15.0256 9.52308 15.0256H14.4769C14.759 15.0256 14.9898 14.7949 14.9898 14.5128C14.9898 14.2308 14.759 14 14.4769 14Z" fill="#495A75" fill-opacity="0.58"/>
<path d="M14.4769 12.4103H9.52308C9.24102 12.4103 9.01025 12.641 9.01025 12.9231C9.01025 13.2052 9.24102 13.4359 9.52308 13.4359H14.4769C14.759 13.4359 14.9898 13.2052 14.9898 12.9231C14.9898 12.641 14.759 12.4103 14.4769 12.4103Z" fill="#495A75" fill-opacity="0.58"/>
</svg>
