<svg width="50" height="50" viewBox="0 0 50 50" fill="none" xmlns="http://www.w3.org/2000/svg">
<path d="M42.1875 0H7.8125C3.50469 0 0 3.50469 0 7.8125V7.91016C0 12.218 3.50469 15.7227 7.8125 15.7227C7.84541 15.7227 7.87764 15.7193 7.91016 15.7177V42.1875C7.91016 46.4953 11.4148 50 15.7227 50H34.375C38.6828 50 42.1875 46.4953 42.1875 42.1875C42.1875 41.1088 41.3131 40.2344 40.2344 40.2344C39.1557 40.2344 38.2812 41.1088 38.2812 42.1875C38.2812 44.3414 36.5289 46.0938 34.375 46.0938H15.7227C13.5688 46.0938 11.8164 44.3414 11.8164 42.1875V3.90625H38.2812V32.4219C38.2812 33.5006 39.1557 34.375 40.2344 34.375C41.3131 34.375 42.1875 33.5006 42.1875 32.4219V15.7227C46.4953 15.7227 50 12.218 50 7.91016V7.8125C50 3.50469 46.4953 0 42.1875 0ZM7.91016 11.8214C7.87764 11.8197 7.84541 11.8164 7.8125 11.8164C5.65859 11.8164 3.90625 10.0641 3.90625 7.91016V7.8125C3.90625 5.65859 5.65859 3.90625 7.8125 3.90625H7.91016V11.8214ZM46.0938 7.91016C46.0938 10.0641 44.3414 11.8164 42.1875 11.8164V3.90625C44.3414 3.90625 46.0938 5.65859 46.0938 7.8125V7.91016Z" fill="black"/>
<path d="M25.012 16.1133C19.7349 16.1133 15.4417 20.0998 15.4417 25C15.4417 29.9002 19.7349 33.8867 25.012 33.8867C30.289 33.8867 34.5823 29.9002 34.5823 25C34.5823 20.0998 30.289 16.1133 25.012 16.1133ZM25.012 29.9805C21.8888 29.9805 19.3479 27.7463 19.3479 25C19.3479 22.2537 21.8888 20.0195 25.012 20.0195C28.1351 20.0195 30.676 22.2537 30.676 25C30.676 27.7463 28.1352 29.9805 25.012 29.9805Z" fill="#FF0000"/>
<path d="M25.0977 42.4805C26.1763 42.4805 27.0508 41.606 27.0508 40.5273C27.0508 39.4487 26.1763 38.5742 25.0977 38.5742C24.019 38.5742 23.1445 39.4487 23.1445 40.5273C23.1445 41.606 24.019 42.4805 25.0977 42.4805Z" fill="#FF0000"/>
<path d="M25.0977 11.4258C26.1763 11.4258 27.0508 10.5513 27.0508 9.47266C27.0508 8.39398 26.1763 7.51953 25.0977 7.51953C24.019 7.51953 23.1445 8.39398 23.1445 9.47266C23.1445 10.5513 24.019 11.4258 25.0977 11.4258Z" fill="#FF0000"/>
</svg>
