<svg width="24" height="24" viewBox="0 0 24 24" fill="none" xmlns="http://www.w3.org/2000/svg">
<path d="M19.2738 2.75116V6.712L16.8945 5.25714C15.8791 4.41888 14.3626 4.53972 13.4935 5.53657L12.6019 6.55933H0V17.5028H5.44411C6.507 18.6117 8.00198 19.3027 9.65503 19.3027H19.2738V21.2488H24V2.75116H19.2738ZM4.41595 16.0348H1.46808V8.02741H11.3222L11.2743 8.08221C11.0154 8.36847 10.8378 8.69046 10.7467 9.02814H4.64939V9.5635V9.76221C4.64939 10.2227 4.27847 10.598 3.81994 10.6053C3.81506 10.6058 3.81066 10.6058 3.80573 10.6058H3.07167V13.5899H3.80569C3.81108 13.5899 3.81595 13.5899 3.82134 13.5904C4.27889 13.5982 4.64934 13.9736 4.64934 14.4335V15.1676H5.63297H13.975V14.4335C13.975 13.9682 14.3538 13.5899 14.8187 13.5899H15.5527V11.0316V10.6059H14.8187C14.7507 10.6059 14.6841 10.5976 14.621 10.5824L15.4196 9.68294L16.641 11.0316L17.2747 11.7314V16.0348H6.12478H4.41595V16.0348ZM8.52216 13.1999C8.61075 13.2391 8.70225 13.2723 8.79717 13.3002C8.87986 13.3247 8.96503 13.3438 9.05166 13.358V13.6996H5.99808C5.86055 13.2905 5.61197 12.9323 5.28802 12.6607C5.06925 12.4777 4.8158 12.3338 4.5398 12.2413V11.9545C4.8158 11.862 5.0693 11.7182 5.28802 11.5351C5.46075 11.3903 5.61244 11.2204 5.73675 11.0316C5.84588 10.8667 5.93395 10.6871 5.99808 10.4962H9.05166V10.783C9.02522 10.7894 8.9993 10.7962 8.97384 10.8045C8.85834 10.8408 8.75705 10.895 8.66949 10.9665C8.64455 10.9871 8.62153 11.0086 8.5995 11.0316C8.54419 11.0893 8.4982 11.1559 8.46197 11.2302C8.41106 11.335 8.38561 11.4549 8.38561 11.5909C8.38561 11.6878 8.39981 11.773 8.4277 11.8458C8.45559 11.9183 8.49769 11.9829 8.55492 12.0386C8.61169 12.0944 8.68411 12.1434 8.77172 12.1859C8.85881 12.2285 8.96208 12.2681 9.081 12.3043C9.17105 12.3312 9.25373 12.3552 9.33056 12.3773C9.40692 12.3988 9.47297 12.4228 9.52875 12.4482C9.58453 12.4737 9.62808 12.5021 9.65991 12.5339C9.69122 12.5652 9.70739 12.6053 9.70739 12.6538C9.70739 12.7825 9.60169 12.8466 9.39028 12.8466C9.29095 12.8466 9.19256 12.8334 9.09567 12.8069C8.99827 12.78 8.9107 12.7497 8.83144 12.7159C8.75264 12.6816 8.68659 12.6479 8.63325 12.6136C8.57991 12.5799 8.54808 12.5568 8.5388 12.5446L8.27648 13.0653C8.35186 13.1163 8.43356 13.1613 8.52216 13.1999ZM9.60952 13.3683C9.65358 13.3619 9.69712 13.3541 9.74016 13.3438C9.85664 13.3159 9.95939 13.2709 10.0494 13.2092C10.139 13.147 10.2114 13.0658 10.2662 12.965C10.3206 12.8647 10.3479 12.7414 10.3479 12.5956C10.3479 12.4766 10.3293 12.3749 10.2916 12.2897C10.254 12.2051 10.2006 12.1326 10.1311 12.0734C10.0621 12.0137 9.97795 11.9638 9.87816 11.9242C9.77883 11.8841 9.66727 11.8469 9.54342 11.8131C9.45337 11.7886 9.37458 11.7666 9.30656 11.7475C9.23855 11.7279 9.18225 11.7069 9.13725 11.6834C9.09272 11.6604 9.05845 11.6344 9.03548 11.6056C9.01247 11.5762 9.00075 11.54 9.00075 11.496C9.00075 11.3531 9.10791 11.2811 9.32128 11.2811C9.39909 11.2811 9.47639 11.2924 9.5542 11.3139C9.63202 11.3359 9.70345 11.3614 9.76903 11.3907C9.83461 11.4196 9.88941 11.4475 9.93295 11.4744C9.9765 11.5008 10.002 11.5194 10.0093 11.5287L10.2716 11.034C10.2702 11.033 10.2687 11.0326 10.2672 11.0316C10.2105 10.9983 10.1478 10.965 10.0803 10.9317C10.0113 10.898 9.93642 10.8676 9.85664 10.8407C9.77784 10.8148 9.69516 10.7932 9.60952 10.7761V10.4962H10.8916C10.9866 10.693 11.1094 10.8731 11.2547 11.0316C11.5567 11.3624 11.953 11.5973 12.3847 11.6834C12.7365 11.7534 13.0869 11.7216 13.4128 11.5963C13.6134 11.7505 13.84 11.8723 14.0847 11.9546V12.2413C13.3996 12.4713 12.8565 13.0145 12.6264 13.6996H9.60956V13.3683H9.60952ZM19.2738 17.8346H9.65498C9.06431 17.8346 8.50106 17.7167 7.98675 17.5028H18.7428V13.3526L19.2738 13.9389V17.8346ZM19.2738 11.7514L18.7428 11.1652L18.6219 11.0316L17.2924 9.5635L17.2747 9.54443L16.0504 8.19232L15.997 8.15172C15.9295 8.10035 15.8566 8.05872 15.7812 8.02741C15.5473 7.93005 15.285 7.93005 15.0516 8.02741C14.9655 8.06266 14.8837 8.1116 14.8084 8.17371L14.7649 8.20994L13.975 9.0986L13.562 9.5635L13.1637 10.0118L13.1563 10.0206C12.9214 10.2932 12.733 10.2559 12.6713 10.2437C12.4585 10.2011 12.2554 10.0064 12.1776 9.76952C12.1551 9.70052 12.1438 9.63152 12.1443 9.5635C12.1453 9.39222 12.2191 9.22535 12.3655 9.06438L12.3973 9.02814L13.2693 8.02741L14.549 6.55933L14.5999 6.50111C14.9513 6.09836 15.5674 6.05336 15.974 6.4008C16.0117 6.4331 16.0523 6.46244 16.0949 6.48888L16.2099 6.55933L18.7428 8.10813L19.2737 8.43307V9.56346V11.7514H19.2738ZM22.5319 19.7808H20.7419V18.5197V10.3465V4.21924H22.5319V19.7808Z" fill="#7D8797"/>
<path d="M6.82402 12.5632C7.08104 12.5632 7.28939 12.3548 7.28939 12.0978C7.28939 11.8408 7.08104 11.6324 6.82402 11.6324C6.567 11.6324 6.35864 11.8408 6.35864 12.0978C6.35864 12.3548 6.567 12.5632 6.82402 12.5632Z" fill="#7D8797"/>
<path d="M11.8003 12.5632C12.0573 12.5632 12.2657 12.3548 12.2657 12.0978C12.2657 11.8408 12.0573 11.6324 11.8003 11.6324C11.5433 11.6324 11.335 11.8408 11.335 12.0978C11.335 12.3548 11.5433 12.5632 11.8003 12.5632Z" fill="#7D8797"/>
</svg>
