<svg width="48" height="48" viewBox="0 0 48 48" fill="none" xmlns="http://www.w3.org/2000/svg">
<g clip-path="url(#clip0)">
<path d="M48 35.3804C48 30.2121 44.2632 25.9005 39.3497 25.0047L37.8966 12.4116H41.8969V3.58777C36.8976 3.07327 32.8422 4.31114 29.9069 7.40311L30.042 9.5992H27.0469V12.4117H30.2152L31.0738 26.3663C31.122 27.0572 30.5399 27.8815 29.6499 27.8805H19.5215C20.0559 26.0604 21.9757 24.554 23.9954 24.5992H25.4017V17.0992C25.4017 14.6438 23.4039 12.6461 20.9485 12.6461H11.8125C9.35709 12.6461 7.35938 14.6438 7.35938 17.0992C7.35938 18.5031 8.01309 19.7565 9.03141 20.5734C7.51594 21.3541 6.11381 22.3734 4.87331 23.6134C1.73072 26.757 0 30.936 0 35.3804V36.7866H3.32259C3.17044 40.971 6.60469 44.5376 10.816 44.525C14.9964 44.5331 18.4604 41.0116 18.3096 36.7866H29.6903C29.5382 40.971 32.9725 44.5376 37.1839 44.525C41.3643 44.5331 44.8282 41.0116 44.6773 36.7866H48V35.3804ZM32.795 8.54452C34.4333 7.16367 36.615 6.38695 39.0844 6.29827V9.59911H32.8598L32.795 8.54452ZM11.8125 18.7397C10.9079 18.7397 10.1719 18.0037 10.1719 17.0991C10.1719 16.1945 10.9079 15.4585 11.8125 15.4585H20.9484C21.853 15.4585 22.5891 16.1945 22.5891 17.0991V18.7397H16.6406H11.8125ZM6.86194 25.6021C9.47447 22.9905 12.9473 21.5523 16.6406 21.5523H22.5891V21.9176C21.1215 22.1945 19.7714 22.9043 18.6922 23.9836C16.8572 25.7201 16.34 28.2805 16.4953 30.693H29.6499C31.9479 30.7458 34.0791 28.5964 33.881 26.1934L33.0329 12.4117H35.0654L36.8177 27.5985C37.2714 30.819 34.4822 34.053 31.1354 33.9742H2.88262C3.19997 30.8118 4.58494 27.8799 6.86194 25.6021ZM10.816 41.7126C8.19825 41.7173 5.98406 39.4679 6.13716 36.7867H9.40987V38.4337L12.2224 38.4338V36.7867H15.4951C15.6481 39.4678 13.4339 41.7173 10.816 41.7126ZM37.184 41.7126C34.5661 41.7173 32.3519 39.4679 32.505 36.7867H35.7777V38.4337L38.5902 38.4338V36.7867H41.8629C42.0159 39.4678 39.8018 41.7173 37.184 41.7126ZM37.466 33.9741C37.479 33.9598 37.4923 33.9457 37.5052 33.9313C38.9676 32.2904 39.7353 30.1498 39.6629 27.9695C42.416 28.7919 44.5308 31.1078 45.0593 33.9741H37.466Z" fill="white"/>
</g>
<defs>
<clipPath id="clip0">
<rect width="48" height="48" fill="white"/>
</clipPath>
</defs>
</svg>
