<svg width="48" height="48" viewBox="0 0 48 48" fill="none" xmlns="http://www.w3.org/2000/svg">
<g clip-path="url(#clip0)">
<path d="M39.0624 18.8281H38.4252L35.9792 13.9364C34.8172 11.6116 31.871 9.79065 29.2717 9.79065H15.7156C13.1165 9.79065 10.1703 11.6116 9.00834 13.9362L6.56213 18.8281H5.17181C2.32013 18.8281 0 21.1482 0 24V28.5188C0 31.3705 2.32013 33.6906 5.17181 33.6906H6.94837C7.58147 36.2808 9.92091 38.2093 12.7034 38.2093C15.4858 38.2093 17.8251 36.2808 18.4582 33.6906H29.5422C30.1753 36.2808 32.5147 38.2093 35.2972 38.2093C38.0796 38.2093 40.4188 36.2808 41.0519 33.6906H42.8281C45.68 33.6906 48.0001 31.3705 48.0001 28.5188V27.7655C48 22.8375 43.9906 18.8281 39.0624 18.8281ZM33.4636 15.194L35.2808 18.8281H23.9002V12.6032H29.2717C30.8149 12.6032 32.7737 13.8137 33.4636 15.194ZM11.524 15.1938C12.2138 13.8137 14.1726 12.6032 15.7156 12.6032H21.0877V18.8281H9.70669L11.524 15.1938ZM12.7034 35.3968C10.9871 35.3968 9.59091 34.0006 9.59091 32.2844C9.59091 30.5681 10.9872 29.1718 12.7034 29.1718C14.4181 29.1718 15.8132 30.5658 15.8155 32.2801C15.8155 32.2816 15.8153 32.283 15.8153 32.2844C15.8153 32.2858 15.8155 32.2872 15.8155 32.2886C15.8132 34.0029 14.4181 35.3968 12.7034 35.3968ZM35.2971 35.3968C33.5809 35.3968 32.1847 34.0006 32.1847 32.2844C32.1847 30.5681 33.581 29.1718 35.2971 29.1718C37.0132 29.1718 38.4093 30.5681 38.4093 32.2844C38.4093 34.0006 37.0132 35.3968 35.2971 35.3968ZM45.1875 28.5188C45.1875 29.8197 44.1291 30.8781 42.828 30.8781H41.0518C40.4187 28.2878 38.0795 26.3593 35.2971 26.3593C32.5146 26.3593 30.1752 28.2878 29.5421 30.8781H18.4581C17.8251 28.2878 15.4857 26.3593 12.7033 26.3593C9.92081 26.3593 7.58137 28.2878 6.94828 30.8781H5.17172C3.87094 30.8781 2.8125 29.8198 2.8125 28.5188V24C2.8125 22.6991 3.87094 21.6406 5.17181 21.6406H37.5479C37.551 21.6406 37.5541 21.6409 37.5573 21.6409C37.5592 21.6409 37.561 21.6406 37.563 21.6406H39.0624C41.3862 21.6406 43.4119 22.9414 44.4495 24.8531H44.3344C43.5578 24.8531 42.9281 25.4827 42.9281 26.2593C42.9281 27.036 43.5578 27.6656 44.3344 27.6656H45.1849C45.1854 27.699 45.1874 27.7321 45.1874 27.7655V28.5188H45.1875Z" fill="white"/>
<path d="M24.7533 24.8531H23.2471C22.4704 24.8531 21.8408 25.4828 21.8408 26.2594C21.8408 27.036 22.4704 27.6656 23.2471 27.6656H24.7533C25.5299 27.6656 26.1595 27.036 26.1595 26.2594C26.1595 25.4827 25.5299 24.8531 24.7533 24.8531Z" fill="white"/>
</g>
<defs>
<clipPath id="clip0">
<rect width="48" height="48" fill="white"/>
</clipPath>
</defs>
</svg>
