<svg width="120" height="80" viewBox="0 0 120 80" fill="none" xmlns="http://www.w3.org/2000/svg">
<path d="M63.938 12.48C63.4339 12.48 62.941 12.6295 62.5219 12.9096C62.1027 13.1897 61.7759 13.5878 61.583 14.0535C61.3901 14.5193 61.3396 15.0318 61.438 15.5263C61.5363 16.0207 61.7791 16.4749 62.1356 16.8314C62.4921 17.1879 62.9463 17.4307 63.4407 17.529C63.9352 17.6274 64.4477 17.5769 64.9135 17.384C65.3792 17.191 65.7773 16.8643 66.0574 16.4451C66.3375 16.026 66.487 15.5331 66.487 15.029C66.487 14.6943 66.4211 14.3628 66.293 14.0535C66.1649 13.7443 65.9771 13.4633 65.7404 13.2266C65.5037 12.9899 65.2227 12.8021 64.9135 12.674C64.6042 12.5459 64.2727 12.48 63.938 12.48ZM63.938 16.312C63.6842 16.312 63.4362 16.2367 63.2252 16.0958C63.0142 15.9548 62.8498 15.7544 62.7527 15.52C62.6556 15.2855 62.6302 15.0276 62.6797 14.7787C62.7292 14.5298 62.8513 14.3012 63.0308 14.1218C63.2102 13.9423 63.4388 13.8202 63.6877 13.7707C63.9366 13.7211 64.1946 13.7466 64.429 13.8437C64.6634 13.9408 64.8638 14.1052 65.0048 14.3162C65.1457 14.5272 65.221 14.7752 65.221 15.029C65.2213 15.1977 65.1883 15.3647 65.1239 15.5206C65.0596 15.6765 64.9651 15.8182 64.8459 15.9375C64.7268 16.0569 64.5852 16.1515 64.4295 16.2161C64.2737 16.2807 64.1067 16.314 63.938 16.314V16.312Z" fill="#FF2667"/>
<path d="M38.561 53.644C38.5687 54.9566 39.0966 56.2126 40.0291 57.1364C40.9616 58.0602 42.2224 58.5765 43.535 58.572H79.293C79.3753 58.5745 79.4572 58.5607 79.534 58.5312C79.6109 58.5017 79.6811 58.4573 79.7405 58.4004C79.8 58.3435 79.8476 58.2754 79.8805 58.2C79.9133 58.1245 79.9308 58.0433 79.932 57.961V50.129H80.588C80.7192 50.1343 80.8501 50.1136 80.9733 50.068C81.0964 50.0223 81.2092 49.9527 81.3052 49.8631C81.4012 49.7735 81.4784 49.6658 81.5325 49.5461C81.5865 49.4265 81.6163 49.2972 81.62 49.166V39.26C81.6161 38.9852 81.5069 38.7223 81.3149 38.5256C81.1228 38.329 80.8627 38.2135 80.588 38.203H79.826V29.763C79.8257 29.5941 79.7585 29.4323 79.6391 29.3129C79.5197 29.1935 79.3579 29.1263 79.189 29.126H76.661V7.258C76.6514 7.08876 76.5759 6.93001 76.4507 6.81579C76.3254 6.70157 76.1604 6.64098 75.991 6.647H46.261C46.1795 6.64472 46.0984 6.65886 46.0226 6.68859C45.9467 6.71833 45.8775 6.76303 45.8193 6.82005C45.7611 6.87708 45.7149 6.94524 45.6836 7.02048C45.6523 7.09572 45.6364 7.1765 45.637 7.258V20.684H43.52C42.2337 20.6745 40.9953 21.1711 40.072 22.0667C39.1487 22.9623 38.6146 24.185 38.585 25.471C38.5818 25.6346 38.5885 25.7982 38.605 25.961H38.561V53.644ZM80.354 39.469V48.862H75.002C74.4884 48.8692 73.9799 48.7594 73.515 48.541L70.841 47.249C70.2705 46.9714 69.7895 46.539 69.4531 46.0011C69.1166 45.4632 68.9382 44.8415 68.9382 44.207C68.9382 43.5725 69.1166 42.9509 69.4531 42.4129C69.7895 41.875 70.2705 41.4426 70.841 41.165L73.515 39.837C73.9768 39.6046 74.4851 39.4795 75.002 39.471L80.354 39.469ZM52.492 7.913H75.392V29.127H73.561C73.547 28.9157 73.526 28.7063 73.498 28.499V13.132C73.498 12.9641 73.4313 12.8031 73.3126 12.6844C73.1939 12.5657 73.0329 12.499 72.865 12.499C72.5732 12.5127 72.2817 12.4661 72.0087 12.3622C71.7357 12.2583 71.487 12.0992 71.2782 11.895C71.0693 11.6907 70.9048 11.4457 70.7948 11.175C70.6849 10.9044 70.6318 10.614 70.639 10.322C70.6341 10.1574 70.5652 10.0013 70.447 9.88664C70.3288 9.772 70.1706 9.70793 70.006 9.708H57.78C57.6154 9.70793 57.4572 9.772 57.339 9.88664C57.2208 10.0013 57.1519 10.1574 57.147 10.322C57.0594 10.9513 56.7381 11.5247 56.2472 11.928C55.7562 12.3314 55.1314 12.5352 54.497 12.499C54.3291 12.499 54.1681 12.5657 54.0494 12.6844C53.9307 12.8031 53.864 12.9641 53.864 13.132V29.127H52.492V7.913ZM63.938 20.12C62.0728 20.1259 60.249 20.6709 58.6863 21.6892C57.1236 22.7076 55.8886 24.156 55.13 25.86V13.719C55.8748 13.6285 56.5761 13.3195 57.1456 12.831C57.7151 12.3425 58.1272 11.6963 58.33 10.974H69.43C69.5504 11.6653 69.8845 12.3015 70.3853 12.793C70.8862 13.2845 71.5285 13.6066 72.222 13.714V24.862C71.3702 23.4217 70.1589 22.2275 68.7067 21.3962C67.2545 20.5649 65.6113 20.1252 63.938 20.12ZM72.227 28.582V29.126H71.083C70.9248 27.3402 70.1035 25.6784 68.781 24.468C67.4586 23.2575 65.7308 22.5862 63.938 22.5862C62.1452 22.5862 60.4174 23.2575 59.095 24.468C57.7725 25.6784 56.9513 27.3402 56.793 29.126H55.593C55.7489 27.0682 56.6594 25.1405 58.1496 23.7129C59.6399 22.2853 61.6049 21.4584 63.6675 21.391C65.7301 21.3235 67.7449 22.0203 69.3252 23.3475C70.9056 24.6747 71.94 26.5388 72.23 28.582H72.227ZM49.748 7.913H51.226V29.127H49.748V7.913ZM46.898 7.913H48.481V29.127H46.899L46.898 7.913ZM43.461 21.949H45.628V29.126H43.506C43.0301 29.1363 42.5569 29.0519 42.114 28.8777C41.6711 28.7034 41.2672 28.4428 40.926 28.1109C40.5847 27.7791 40.3129 27.3827 40.1263 26.9448C39.9397 26.507 39.842 26.0363 39.8391 25.5604C39.8361 25.0844 39.9278 24.6126 40.1089 24.1724C40.29 23.7322 40.5568 23.3324 40.8939 22.9963C41.231 22.6602 41.6315 22.3946 42.0722 22.2148C42.513 22.035 42.985 21.9446 43.461 21.949ZM39.823 28.802C40.2897 29.3001 40.8529 29.698 41.4784 29.9714C42.1038 30.2447 42.7784 30.3878 43.461 30.392H58.613C58.7809 30.392 58.9419 30.3253 59.0606 30.2066C59.1793 30.0879 59.246 29.9269 59.246 29.759C59.246 29.5911 59.1793 29.4301 59.0606 29.3114C58.9419 29.1927 58.7809 29.126 58.613 29.126H58.061C58.2171 27.6771 58.9033 26.337 59.9875 25.3633C61.0718 24.3895 62.4777 23.8509 63.935 23.8509C65.3923 23.8509 66.7982 24.3895 67.8825 25.3633C68.9667 26.337 69.6529 27.6771 69.809 29.126H62.835C62.6671 29.126 62.5061 29.1927 62.3874 29.3114C62.2687 29.4301 62.202 29.5911 62.202 29.759C62.202 29.9269 62.2687 30.0879 62.3874 30.2066C62.5061 30.3253 62.6671 30.392 62.835 30.392H78.561V38.202H75.002C74.2924 38.2127 73.5943 38.3836 72.96 38.702L70.286 40.019C69.5021 40.4028 68.8415 40.9988 68.3796 41.7393C67.9176 42.4799 67.6726 43.3352 67.6726 44.208C67.6726 45.0808 67.9176 45.9361 68.3796 46.6767C68.8415 47.4172 69.5021 48.0132 70.286 48.397L72.961 49.678C73.599 49.9812 74.2976 50.1354 75.004 50.129H78.661V57.306H43.535C42.5582 57.3108 41.6193 56.9279 40.9244 56.2414C40.2294 55.5549 39.8351 54.6208 39.828 53.644L39.823 28.802Z" fill="#FF2667"/>
<path d="M72.994 41.944C72.5452 41.944 72.1065 42.0771 71.7334 42.3264C71.3603 42.5757 71.0695 42.9301 70.8977 43.3447C70.726 43.7593 70.6811 44.2155 70.7686 44.6557C70.8562 45.0958 71.0722 45.5001 71.3896 45.8174C71.7069 46.1348 72.1112 46.3509 72.5513 46.4384C72.9915 46.526 73.4477 46.481 73.8623 46.3093C74.2769 46.1376 74.6313 45.8467 74.8806 45.4736C75.1299 45.1005 75.263 44.6618 75.263 44.213C75.263 43.6112 75.0239 43.0341 74.5984 42.6086C74.1729 42.1831 73.5958 41.944 72.994 41.944ZM72.994 45.216C72.7962 45.216 72.6029 45.1574 72.4384 45.0475C72.274 44.9376 72.1458 44.7814 72.0701 44.5987C71.9944 44.416 71.9746 44.2149 72.0132 44.0209C72.0518 43.8269 72.147 43.6488 72.2869 43.5089C72.4267 43.3691 72.6049 43.2738 72.7989 43.2352C72.9929 43.1966 73.1939 43.2164 73.3767 43.2921C73.5594 43.3678 73.7156 43.496 73.8255 43.6604C73.9353 43.8249 73.994 44.0182 73.994 44.216C73.994 44.4812 73.8886 44.7356 73.7011 44.9231C73.5136 45.1107 73.2592 45.216 72.994 45.216Z" fill="#FF2667"/>
<path d="M43.838 34.515C44.0059 34.515 44.1669 34.4483 44.2856 34.3296C44.4043 34.2109 44.471 34.0499 44.471 33.882V33.217C44.471 33.0491 44.4043 32.8881 44.2856 32.7694C44.1669 32.6507 44.0059 32.584 43.838 32.584C43.6701 32.584 43.5091 32.6507 43.3904 32.7694C43.2717 32.8881 43.205 33.0491 43.205 33.217V33.882C43.205 34.0499 43.2717 34.2109 43.3904 34.3296C43.5091 34.4483 43.6701 34.515 43.838 34.515Z" fill="#FF2667"/>
<path d="M43.838 46.652C44.0059 46.652 44.1669 46.5853 44.2856 46.4666C44.4043 46.3479 44.471 46.1869 44.471 46.019V35.887C44.471 35.7191 44.4043 35.5581 44.2856 35.4394C44.1669 35.3207 44.0059 35.254 43.838 35.254C43.6701 35.254 43.5091 35.3207 43.3904 35.4394C43.2717 35.5581 43.205 35.7191 43.205 35.887V46.019C43.205 46.1021 43.2214 46.1844 43.2532 46.2612C43.285 46.338 43.3316 46.4078 43.3904 46.4666C43.4492 46.5254 43.519 46.572 43.5958 46.6038C43.6726 46.6356 43.7549 46.652 43.838 46.652Z" fill="#FF2667"/>
<path d="M24.0039 54.5781H12.0898L9.41406 62H5.54688L16.4062 33.5625H19.6875L30.5664 62H26.7188L24.0039 54.5781ZM13.2227 51.4922H22.8906L18.0469 38.1914L13.2227 51.4922ZM44.043 44.1094C43.4961 44.0182 42.9036 43.9727 42.2656 43.9727C39.8958 43.9727 38.2878 44.9818 37.4414 47V62H33.8281V40.8672H37.3438L37.4023 43.3086C38.5872 41.4206 40.2669 40.4766 42.4414 40.4766C43.1445 40.4766 43.6784 40.5677 44.043 40.75V44.1094ZM53.2617 35.75V40.8672H57.207V43.6602H53.2617V56.7656C53.2617 57.612 53.4375 58.25 53.7891 58.6797C54.1406 59.0964 54.7396 59.3047 55.5859 59.3047C56.0026 59.3047 56.5755 59.2266 57.3047 59.0703V62C56.3542 62.2604 55.4297 62.3906 54.5312 62.3906C52.9167 62.3906 51.6992 61.9023 50.8789 60.9258C50.0586 59.9492 49.6484 58.5625 49.6484 56.7656V43.6602H45.8008V40.8672H49.6484V35.75H53.2617ZM61.5234 60.1055C61.5234 59.4805 61.7057 58.9596 62.0703 58.543C62.4479 58.1263 63.0078 57.918 63.75 57.918C64.4922 57.918 65.0521 58.1263 65.4297 58.543C65.8203 58.9596 66.0156 59.4805 66.0156 60.1055C66.0156 60.7044 65.8203 61.2057 65.4297 61.6094C65.0521 62.013 64.4922 62.2148 63.75 62.2148C63.0078 62.2148 62.4479 62.013 62.0703 61.6094C61.7057 61.2057 61.5234 60.7044 61.5234 60.1055ZM71.0352 51.2383C71.0352 49.168 71.4388 47.306 72.2461 45.6523C73.0664 43.9987 74.1992 42.7227 75.6445 41.8242C77.1029 40.9258 78.763 40.4766 80.625 40.4766C83.5026 40.4766 85.8268 41.4727 87.5977 43.4648C89.3815 45.457 90.2734 48.1068 90.2734 51.4141V51.668C90.2734 53.7253 89.8763 55.5742 89.082 57.2148C88.3008 58.8424 87.1745 60.112 85.7031 61.0234C84.2448 61.9349 82.5651 62.3906 80.6641 62.3906C77.7995 62.3906 75.4753 61.3945 73.6914 59.4023C71.9206 57.4102 71.0352 54.7734 71.0352 51.4922V51.2383ZM74.668 51.668C74.668 54.0117 75.2083 55.8932 76.2891 57.3125C77.3828 58.7318 78.8411 59.4414 80.6641 59.4414C82.5 59.4414 83.9583 58.7253 85.0391 57.293C86.1198 55.8477 86.6602 53.8294 86.6602 51.2383C86.6602 48.9206 86.1068 47.0456 85 45.6133C83.9062 44.168 82.4479 43.4453 80.625 43.4453C78.8411 43.4453 77.4023 44.1549 76.3086 45.5742C75.2148 46.9935 74.668 49.0247 74.668 51.668ZM107.109 56.3945C107.109 55.418 106.738 54.6628 105.996 54.1289C105.267 53.582 103.984 53.1133 102.148 52.7227C100.326 52.332 98.8737 51.8633 97.793 51.3164C96.7253 50.7695 95.931 50.1185 95.4102 49.3633C94.9023 48.6081 94.6484 47.7096 94.6484 46.668C94.6484 44.9362 95.3776 43.4714 96.8359 42.2734C98.3073 41.0755 100.182 40.4766 102.461 40.4766C104.857 40.4766 106.797 41.0951 108.281 42.332C109.779 43.569 110.527 45.151 110.527 47.0781H106.895C106.895 46.0885 106.471 45.2357 105.625 44.5195C104.792 43.8034 103.737 43.4453 102.461 43.4453C101.146 43.4453 100.117 43.7318 99.375 44.3047C98.6328 44.8776 98.2617 45.6263 98.2617 46.5508C98.2617 47.4232 98.6068 48.0807 99.2969 48.5234C99.987 48.9661 101.23 49.3893 103.027 49.793C104.837 50.1966 106.302 50.6784 107.422 51.2383C108.542 51.7982 109.368 52.4753 109.902 53.2695C110.449 54.0508 110.723 55.0078 110.723 56.1406C110.723 58.0286 109.967 59.5456 108.457 60.6914C106.947 61.8242 104.987 62.3906 102.578 62.3906C100.885 62.3906 99.388 62.0911 98.0859 61.4922C96.7839 60.8932 95.7617 60.0599 95.0195 58.9922C94.2904 57.9115 93.9258 56.7461 93.9258 55.4961H97.5391C97.6042 56.707 98.0859 57.6706 98.9844 58.3867C99.8958 59.0898 101.094 59.4414 102.578 59.4414C103.945 59.4414 105.039 59.168 105.859 58.6211C106.693 58.0612 107.109 57.319 107.109 56.3945Z" fill="#0D276B"/>
</svg>
