<?xml version="1.0" standalone="no"?>
<!DOCTYPE svg PUBLIC "-//W3C//DTD SVG 20010904//EN"
 "http://www.w3.org/TR/2001/REC-SVG-20010904/DTD/svg10.dtd">
<svg version="1.0" xmlns="http://www.w3.org/2000/svg"
 width="180.000000pt" height="180.000000pt" viewBox="0 0 180.000000 180.000000"
 preserveAspectRatio="xMidYMid meet">
<metadata>
Created by potrace 1.16, written by Peter Selinger 2001-2019
</metadata>
<g transform="translate(0.000000,180.000000) scale(0.100000,-0.100000)"
fill="#000000" stroke="none">
<path d="M1342 1730 c-123 -62 -179 -196 -139 -331 9 -30 26 -130 37 -224 12
-93 25 -174 29 -178 4 -4 77 49 162 119 85 69 166 132 180 140 65 33 129 147
129 228 0 59 -29 132 -71 180 -56 63 -108 88 -194 93 -63 4 -76 2 -133 -27z
m235 -21 c81 -39 133 -126 133 -224 0 -112 -5 -118 -277 -340 l-152 -124 -6
42 c-3 23 -14 107 -24 187 -11 80 -24 167 -30 193 -43 197 169 355 356 266z"/>
<path d="M1380 1705 c-62 -28 -102 -67 -127 -123 -72 -156 38 -325 212 -326
189 -1 296 208 187 367 -54 80 -188 120 -272 82z m180 -35 c70 -36 110 -104
110 -185 0 -58 -18 -102 -60 -143 -46 -47 -94 -64 -163 -60 -127 9 -213 125
-185 252 8 38 21 60 57 96 70 70 154 84 241 40z"/>
<path d="M1385 1518 c-22 -62 -41 -115 -43 -119 -2 -5 50 -29 64 -29 2 0 9 18
15 41 12 37 15 40 38 33 49 -14 84 -8 108 20 28 32 30 76 5 106 -18 22 -102
60 -132 60 -10 0 -28 -37 -55 -112z m153 53 c29 -15 36 -58 16 -88 -14 -22
-21 -25 -58 -20 -22 3 -48 8 -57 11 -12 5 -20 -4 -32 -34 -9 -23 -20 -39 -26
-36 -6 4 3 40 21 89 17 45 33 90 35 99 4 15 9 15 43 3 22 -8 48 -18 58 -24z"/>
<path d="M895 1361 c-127 -47 -236 -90 -243 -94 -7 -5 -12 -20 -12 -35 0 -47
317 -905 342 -925 25 -21 17 -22 164 31 97 35 111 38 107 22 -3 -10 0 -21 6
-24 15 -10 14 -181 -1 -205 -6 -10 -8 -26 -5 -35 6 -14 18 -17 75 -15 37 2 73
0 80 -5 18 -11 62 20 62 45 0 13 -10 24 -30 30 -35 13 -40 36 -7 41 16 2 22
10 22 28 0 23 -4 25 -52 28 l-53 3 0 60 c0 54 -2 60 -26 71 -24 11 -18 15 98
57 68 25 129 50 136 54 24 16 11 70 -74 304 -48 131 -87 239 -88 240 -1 1 -8
-2 -15 -6 -11 -7 3 -55 68 -234 53 -144 80 -233 76 -246 -7 -22 -4 -21 -313
-132 -199 -71 -203 -72 -221 -53 -25 26 -313 822 -306 845 6 19 18 24 285 121
91 32 169 63 173 68 10 9 0 51 -11 49 -4 -1 -111 -40 -237 -88z"/>
<path d="M830 1167 c-39 -19 -45 -26 -43 -50 1 -16 10 -45 20 -65 15 -31 23
-37 46 -35 43 3 102 35 105 58 4 31 -40 110 -63 112 -11 2 -40 -7 -65 -20z"/>
<path d="M980 1040 c0 -12 -10 -24 -22 -30 -116 -47 -121 -50 -108 -65 10 -12
20 -11 75 10 55 20 65 22 76 9 6 -8 19 -14 29 -14 10 0 23 -13 30 -30 14 -34
40 -40 40 -10 0 10 -9 44 -21 75 -15 40 -26 55 -39 55 -10 0 -22 5 -25 10 -11
18 -35 11 -35 -10z"/>
<path d="M935 918 c-16 -6 -36 -15 -42 -21 -18 -13 -15 -55 5 -97 15 -30 22
-35 53 -34 19 0 48 7 64 15 25 12 30 20 29 50 -2 81 -40 112 -109 87z"/>
<path d="M83 374 c-3 -9 -1 -25 5 -35 15 -24 15 -184 0 -208 -6 -10 -8 -26 -5
-35 10 -26 171 -23 215 4 l33 21 17 -22 c18 -21 38 -25 125 -21 52 2 69 20 49
53 -7 10 -12 35 -12 54 0 46 -29 75 -76 75 -45 0 -74 -15 -74 -40 0 -11 -4
-20 -10 -20 -5 0 -10 4 -10 9 0 4 -10 21 -22 36 -15 19 -21 39 -19 61 2 25 -4
40 -23 59 -23 23 -33 25 -106 25 -65 0 -82 -3 -87 -16z"/>
<path d="M727 383 c-12 -11 -8 -40 8 -53 11 -9 15 -34 15 -95 0 -68 -3 -85
-19 -100 -20 -17 -20 -16 -23 46 l-3 64 -88 2 c-70 2 -89 0 -93 -12 -4 -9 -2
-21 4 -28 5 -6 12 -31 15 -55 6 -52 21 -72 56 -73 25 0 25 0 4 -9 -39 -16 -22
-60 23 -60 39 0 56 12 74 52 10 23 21 35 24 29 10 -16 111 -14 125 3 12 14 5
46 -10 46 -5 0 -9 18 -9 40 0 37 2 40 29 40 41 0 81 41 81 84 0 26 -7 40 -31
60 -27 23 -40 26 -103 26 -40 0 -76 -3 -79 -7z"/>
<path d="M974 252 c-23 -15 -57 -100 -50 -126 9 -35 58 -60 104 -51 19 4 72 6
116 6 47 0 83 4 87 10 3 6 2 24 -4 40 -10 24 -8 32 12 53 14 14 21 33 19 48
-3 21 -8 23 -48 20 -25 -1 -55 -4 -67 -7 -24 -6 -31 -33 -12 -52 15 -15 7 -58
-11 -58 -11 0 -16 13 -18 47 -2 35 -9 52 -25 63 -22 16 -84 20 -103 7z"/>
</g>
</svg>
